<svg xmlns="http://www.w3.org/2000/svg" viewBox="0 0 640 640">
  <rect width="640" height="640" rx="128" fill="#1a73e8"/>
  <g fill="#ffffff">
<path d="M223 406V580H258Q330 580 330 493Q330 448 311.5 427.0Q293 406 258 406ZM37 714V0H223V272H288Q403 272 462.5 327.5Q522 383 522 494Q522 541 510.0 581.0Q498 621 472.5 650.5Q447 680 408.0 697.0Q369 714 316 714Z" transform="matrix(0.358543 0 0 -0.358543 81.57 448.00)"/>
<path d="M299 357V0H479V357Q479 391 489.0 406.0Q499 421 523 421Q547 421 557.0 406.0Q567 391 567 357V0H747V408Q747 452 736.0 480.0Q725 508 706.0 525.0Q687 542 661.5 548.5Q636 555 606 555Q564 555 527.5 536.5Q491 518 470 472Q453 514 423.5 534.5Q394 555 338 555Q242 555 207 475H205V541H31V0H211V357Q211 391 221.0 406.0Q231 421 255 421Q279 421 289.0 406.0Q299 391 299 357Z" transform="matrix(0.358543 0 0 -0.358543 279.48 448.00)"/>
  </g>
</svg>
